<svg width="58" height="58" viewBox="0 0 58 58" fill="none" xmlns="http://www.w3.org/2000/svg">
<path d="M58 29C58 45.0163 45.0163 58 29 58C12.9837 58 0 45.0163 0 29C0 12.9837 12.9837 0 29 0C45.0163 0 58 12.9837 58 29Z" fill="#D9D9D9"/>
<path d="M29.0493 48.375C24.176 48.375 19.5022 46.4391 16.0562 42.9931C12.6102 39.5471 10.6743 34.8734 10.6743 30C10.6743 25.1266 12.6102 20.4529 16.0562 17.0069C19.5022 13.5609 24.176 11.625 29.0493 11.625C33.9227 11.625 38.5964 13.5609 42.0424 17.0069C45.4884 20.4529 47.4243 25.1266 47.4243 30C47.4243 34.8734 45.4884 39.5471 42.0424 42.9931C38.5964 46.4391 33.9227 48.375 29.0493 48.375ZM29.0493 51C34.6189 51 39.9603 48.7875 43.8986 44.8492C47.8368 40.911 50.0493 35.5695 50.0493 30C50.0493 24.4305 47.8368 19.089 43.8986 15.1508C39.9603 11.2125 34.6189 9 29.0493 9C23.4798 9 18.1383 11.2125 14.2001 15.1508C10.2618 19.089 8.04932 24.4305 8.04932 30C8.04932 35.5695 10.2618 40.911 14.2001 44.8492C18.1383 48.7875 23.4798 51 29.0493 51Z" fill="#383536"/>
<path d="M31.4906 26.2935L25.4793 27.0469L25.2641 28.0444L26.4453 28.2622C27.2171 28.446 27.3693 28.7242 27.2013 29.4934L25.2641 38.5969C24.7548 40.9515 25.5397 42.0592 27.3851 42.0592C28.8157 42.0592 30.4773 41.3977 31.2307 40.4895L31.4617 39.3975C30.9367 39.8595 30.1702 40.0433 29.6609 40.0433C28.9391 40.0433 28.6766 39.5366 28.8629 38.6441L31.4906 26.2935ZM31.6743 20.8125C31.6743 21.5087 31.3978 22.1764 30.9055 22.6687C30.4132 23.1609 29.7455 23.4375 29.0493 23.4375C28.3531 23.4375 27.6854 23.1609 27.1932 22.6687C26.7009 22.1764 26.4243 21.5087 26.4243 20.8125C26.4243 20.1163 26.7009 19.4486 27.1932 18.9563C27.6854 18.4641 28.3531 18.1875 29.0493 18.1875C29.7455 18.1875 30.4132 18.4641 30.9055 18.9563C31.3978 19.4486 31.6743 20.1163 31.6743 20.8125Z" fill="#383536"/>
</svg>
