<svg width="244" height="183" viewBox="0 0 244 183" fill="none" xmlns="http://www.w3.org/2000/svg">
<path d="M30.5 30.5C22.4109 30.5 14.6531 33.7134 8.93324 39.4332C3.21338 45.1531 0 52.9109 0 61L0 152.5C0 160.589 3.21338 168.347 8.93324 174.067C14.6531 179.787 22.4109 183 30.5 183H213.5C221.589 183 229.347 179.787 235.067 174.067C240.787 168.347 244 160.589 244 152.5V61C244 52.9109 240.787 45.1531 235.067 39.4332C229.347 33.7134 221.589 30.5 213.5 30.5H195.627C187.539 30.4983 179.782 27.2838 174.063 21.5635L161.437 8.9365C155.718 3.21624 147.961 0.00172744 139.873 0H104.127C96.0386 0.00172744 88.282 3.21624 82.5635 8.9365L69.9365 21.5635C64.218 27.2838 56.4614 30.4983 48.373 30.5H30.5ZM38.125 61C36.1027 61 34.1633 60.1967 32.7333 58.7667C31.3033 57.3367 30.5 55.3973 30.5 53.375C30.5 51.3527 31.3033 49.4133 32.7333 47.9833C34.1633 46.5533 36.1027 45.75 38.125 45.75C40.1473 45.75 42.0867 46.5533 43.5167 47.9833C44.9467 49.4133 45.75 51.3527 45.75 53.375C45.75 55.3973 44.9467 57.3367 43.5167 58.7667C42.0867 60.1967 40.1473 61 38.125 61ZM175.375 99.125C175.375 113.281 169.752 126.857 159.742 136.867C149.732 146.877 136.156 152.5 122 152.5C107.844 152.5 94.2679 146.877 84.2582 136.867C74.2484 126.857 68.625 113.281 68.625 99.125C68.625 84.9691 74.2484 71.3929 84.2582 61.3832C94.2679 51.3734 107.844 45.75 122 45.75C136.156 45.75 149.732 51.3734 159.742 61.3832C169.752 71.3929 175.375 84.9691 175.375 99.125V99.125Z" fill="#F3F3F3"/>
</svg>
