<svg width="101" height="100" viewBox="0 0 101 100" fill="none" xmlns="http://www.w3.org/2000/svg">
<path d="M50.0441 0C63.2983 0 76.0096 5.26784 85.3818 14.6447C94.7539 24.0215 100.019 36.7392 100.019 50C100.019 63.2608 94.7539 75.9785 85.3818 85.3553C76.0096 94.7322 63.2983 100 50.0441 100C36.7899 100 24.0786 94.7322 14.7064 85.3553C5.3343 75.9785 0.0690918 63.2608 0.0690918 50C0.0690918 36.7392 5.3343 24.0215 14.7064 14.6447C24.0786 5.26784 36.7899 0 50.0441 0ZM28.18 46.875C27.3516 46.875 26.5572 47.2042 25.9714 47.7903C25.3857 48.3763 25.0566 49.1712 25.0566 50C25.0566 50.8288 25.3857 51.6237 25.9714 52.2097C26.5572 52.7958 27.3516 53.125 28.18 53.125L64.3682 53.125L50.9561 66.5375C50.3696 67.1243 50.0401 67.9202 50.0401 68.75C50.0401 69.5798 50.3696 70.3757 50.9561 70.9625C51.5426 71.5493 52.3381 71.8789 53.1675 71.8789C53.997 71.8789 54.7924 71.5493 55.3789 70.9625L74.1195 52.2125C74.4104 51.9222 74.6412 51.5774 74.7987 51.1977C74.9561 50.8181 75.0372 50.411 75.0372 50C75.0372 49.589 74.9561 49.1819 74.7987 48.8023C74.6412 48.4226 74.4104 48.0778 74.1195 47.7875L55.3789 29.0375C54.7924 28.4507 53.997 28.1211 53.1675 28.1211C52.3381 28.1211 51.5426 28.4507 50.9561 29.0375C50.3696 29.6243 50.0401 30.4202 50.0401 31.25C50.0401 32.0798 50.3696 32.8757 50.9561 33.4625L64.3682 46.875L28.18 46.875Z" fill="#FFFEFE"/>
</svg>
