<svg width="101" height="100" viewBox="0 0 101 100" fill="none" xmlns="http://www.w3.org/2000/svg">
<path d="M50.1085 100C36.8543 100 24.143 94.7322 14.7708 85.3553C5.39871 75.9785 0.133499 63.2608 0.133499 50C0.133499 36.7392 5.39871 24.0215 14.7708 14.6447C24.143 5.26784 36.8543 0 50.1085 0C63.3627 0 76.074 5.26784 85.4462 14.6447C94.8183 24.0215 100.083 36.7392 100.083 50C100.083 63.2608 94.8183 75.9785 85.4462 85.3553C76.074 94.7322 63.3627 100 50.1085 100ZM71.9726 53.125C72.8009 53.125 73.5954 52.7958 74.1812 52.2097C74.7669 51.6237 75.096 50.8288 75.096 50C75.096 49.1712 74.7669 48.3763 74.1812 47.7903C73.5954 47.2042 72.8009 46.875 71.9726 46.875H35.7844L49.1965 33.4625C49.783 32.8757 50.1124 32.0798 50.1124 31.25C50.1124 30.4202 49.783 29.6243 49.1965 29.0375C48.61 28.4507 47.8145 28.1211 46.9851 28.1211C46.1556 28.1211 45.3602 28.4507 44.7737 29.0375L26.033 47.7875C25.7422 48.0778 25.5114 48.4226 25.3539 48.8023C25.1965 49.1819 25.1154 49.589 25.1154 50C25.1154 50.411 25.1965 50.8181 25.3539 51.1977C25.5114 51.5774 25.7422 51.9222 26.033 52.2125L44.7737 70.9625C45.3602 71.5493 46.1556 71.8789 46.9851 71.8789C47.8145 71.8789 48.61 71.5493 49.1965 70.9625C49.783 70.3757 50.1124 69.5798 50.1124 68.75C50.1124 67.9202 49.783 67.1243 49.1965 66.5375L35.7844 53.125H71.9726Z" fill="#FFFEFE"/>
</svg>
