<svg width="100" height="100" viewBox="0 0 100 100" fill="none" xmlns="http://www.w3.org/2000/svg">
<path d="M62.9187 5.4375C61.2364 3.71588 59.227 2.34788 57.0084 1.41389C54.7899 0.479908 52.4071 -0.0012207 50 -0.0012207C47.5929 -0.0012207 45.21 0.479908 42.9915 1.41389C40.773 2.34788 38.7635 3.71588 37.0812 5.4375L33.1937 9.425L27.6312 9.35625C25.2234 9.32775 22.8342 9.78099 20.6041 10.6893C18.374 11.5976 16.348 12.9427 14.6453 14.6454C12.9426 16.3481 11.5976 18.374 10.6893 20.6041C9.78096 22.8342 9.32773 25.2234 9.35623 27.6313L9.41873 33.1938L5.44373 37.0813C3.7221 38.7636 2.3541 40.773 1.42012 42.9915C0.486134 45.2101 0.00500488 47.5929 0.00500488 50C0.00500488 52.4071 0.486134 54.7899 1.42012 57.0085C2.3541 59.227 3.7221 61.2364 5.44373 62.9188L9.42498 66.8063L9.35623 72.3688C9.32773 74.7766 9.78096 77.1658 10.6893 79.3959C11.5976 81.626 12.9426 83.6519 14.6453 85.3546C16.348 87.0573 18.374 88.4024 20.6041 89.3107C22.8342 90.219 25.2234 90.6723 27.6312 90.6438L33.1937 90.5813L37.0812 94.5562C38.7635 96.2779 40.773 97.6459 42.9915 98.5799C45.21 99.5138 47.5929 99.995 50 99.995C52.4071 99.995 54.7899 99.5138 57.0084 98.5799C59.227 97.6459 61.2364 96.2779 62.9187 94.5562L66.8062 90.575L72.3687 90.6438C74.7765 90.6723 77.1657 90.219 79.3958 89.3107C81.6259 88.4024 83.6519 87.0573 85.3546 85.3546C87.0573 83.6519 88.4024 81.626 89.3107 79.3959C90.219 77.1658 90.6722 74.7766 90.6437 72.3688L90.5812 66.8063L94.5562 62.9188C96.2778 61.2364 97.6458 59.227 98.5798 57.0085C99.5138 54.7899 99.9949 52.4071 99.9949 50C99.9949 47.5929 99.5138 45.2101 98.5798 42.9915C97.6458 40.773 96.2778 38.7636 94.5562 37.0813L90.575 33.1938L90.6437 27.6313C90.6722 25.2234 90.219 22.8342 89.3107 20.6041C88.4024 18.374 87.0573 16.3481 85.3546 14.6454C83.6519 12.9427 81.6259 11.5976 79.3958 10.6893C77.1657 9.78099 74.7765 9.32775 72.3687 9.35625L66.8062 9.41875L62.9187 5.44375V5.4375ZM64.7125 42.8375L45.9625 61.5875C45.6722 61.8785 45.3273 62.1094 44.9477 62.267C44.568 62.4245 44.161 62.5056 43.75 62.5056C43.3389 62.5056 42.9319 62.4245 42.5523 62.267C42.1726 62.1094 41.8278 61.8785 41.5375 61.5875L32.1625 52.2125C31.8719 51.922 31.6414 51.577 31.4842 51.1974C31.327 50.8178 31.246 50.4109 31.246 50C31.246 49.5891 31.327 49.1822 31.4842 48.8026C31.6414 48.423 31.8719 48.0781 32.1625 47.7875C32.453 47.497 32.798 47.2665 33.1776 47.1092C33.5572 46.952 33.9641 46.8711 34.375 46.8711C34.7859 46.8711 35.1928 46.952 35.5724 47.1092C35.952 47.2665 36.2969 47.497 36.5875 47.7875L43.75 54.9563L60.2875 38.4125C60.8743 37.8257 61.6701 37.4961 62.5 37.4961C63.3298 37.4961 64.1257 37.8257 64.7125 38.4125C65.2993 38.9993 65.6289 39.7952 65.6289 40.625C65.6289 41.4548 65.2993 42.2507 64.7125 42.8375V42.8375Z" fill="white"/>
</svg>
