<svg width="37" height="34" viewBox="0 0 37 34" fill="none" xmlns="http://www.w3.org/2000/svg">
<path fill-rule="evenodd" clip-rule="evenodd" d="M18.5 5.37854L33.3 20.0474V30.3328C33.3 31.3054 32.9102 32.2382 32.2163 32.9259C31.5224 33.6136 30.5813 34 29.6 34H7.4C6.4187 34 5.47759 33.6136 4.7837 32.9259C4.08982 32.2382 3.7 31.3054 3.7 30.3328V20.0474L18.5 5.37854ZM30.8333 3.4398V11.9967L25.9 7.10702V3.4398C25.9 3.1156 26.0299 2.80467 26.2612 2.57543C26.4925 2.34618 26.8062 2.21739 27.1333 2.21739H29.6C29.9271 2.21739 30.2408 2.34618 30.4721 2.57543C30.7034 2.80467 30.8333 3.1156 30.8333 3.4398Z" fill="#F3F3F3"/>
<path fill-rule="evenodd" clip-rule="evenodd" d="M16.7562 0.721967C17.2187 0.259692 17.846 0 18.5 0C19.154 0 19.7813 0.259692 20.2438 0.721967L36.6383 17.11C36.8699 17.3415 37 17.6555 37 17.9829C37 18.3103 36.8699 18.6243 36.6383 18.8558C36.4068 19.0873 36.0927 19.2174 35.7652 19.2174C35.4377 19.2174 35.1237 19.0873 34.8921 18.8558L18.5 2.46532L2.10791 18.8558C1.87635 19.0873 1.56227 19.2174 1.23479 19.2174C0.907301 19.2174 0.593228 19.0873 0.361661 18.8558C0.130093 18.6243 0 18.3103 0 17.9829C0 17.6555 0.130093 17.3415 0.361661 17.11L16.7562 0.721967Z" fill="#F3F3F3"/>
</svg>
