<svg width="200" height="200" viewBox="0 0 200 200" fill="none" xmlns="http://www.w3.org/2000/svg">
<rect width="200" height="200" fill="#F3F3F3"/>
<path fill-rule="evenodd" clip-rule="evenodd" d="M100 41.1625L175 116.163V168.75C175 173.723 173.025 178.492 169.508 182.008C165.992 185.525 161.223 187.5 156.25 187.5H43.75C38.7772 187.5 34.0081 185.525 30.4917 182.008C26.9754 178.492 25 173.723 25 168.75V116.163L100 41.1625V41.1625ZM162.5 31.25V75L137.5 50V31.25C137.5 29.5924 138.158 28.0027 139.331 26.8306C140.503 25.6585 142.092 25 143.75 25H156.25C157.908 25 159.497 25.6585 160.669 26.8306C161.842 28.0027 162.5 29.5924 162.5 31.25Z" fill="#F3F3F3"/>
<path fill-rule="evenodd" clip-rule="evenodd" d="M91.1625 18.75C93.5066 16.4067 96.6854 15.0902 100 15.0902C103.315 15.0902 106.493 16.4067 108.837 18.75L191.925 101.825C193.099 102.999 193.758 104.59 193.758 106.25C193.758 107.91 193.099 109.501 191.925 110.675C190.751 111.849 189.16 112.508 187.5 112.508C185.84 112.508 184.249 111.849 183.075 110.675L100 27.5875L16.925 110.675C15.7514 111.849 14.1597 112.508 12.5 112.508C10.8403 112.508 9.24857 111.849 8.07499 110.675C6.90141 109.501 6.2421 107.91 6.2421 106.25C6.2421 104.59 6.90141 102.999 8.07499 101.825L91.1625 18.75Z" fill="#F3F3F3"/>
</svg>
