<svg width="75" height="75" viewBox="0 0 75 75" fill="none" xmlns="http://www.w3.org/2000/svg">
<path d="M6.61689 74.8241C6.61689 74.8241 0.444092 74.8241 0.444092 68.6513C0.444092 62.4785 6.61689 43.9601 37.4809 43.9601C68.3449 43.9601 74.5177 62.4785 74.5177 68.6513C74.5177 74.8241 68.3449 74.8241 68.3449 74.8241H6.61689ZM37.4809 37.7873C42.3923 37.7873 47.1025 35.8363 50.5754 32.3634C54.0483 28.8905 55.9993 24.1803 55.9993 19.2689C55.9993 14.3575 54.0483 9.64728 50.5754 6.1744C47.1025 2.70153 42.3923 0.750488 37.4809 0.750488C32.5695 0.750488 27.8593 2.70153 24.3864 6.1744C20.9135 9.64728 18.9625 14.3575 18.9625 19.2689C18.9625 24.1803 20.9135 28.8905 24.3864 32.3634C27.8593 35.8363 32.5695 37.7873 37.4809 37.7873Z" fill="white"/>
</svg>
