<svg width="70" height="70" viewBox="0 0 70 70" fill="none" xmlns="http://www.w3.org/2000/svg">
<path fill-rule="evenodd" clip-rule="evenodd" d="M28.583 3.18453C28.5836 2.52099 28.3771 1.87386 27.9925 1.33371C27.6078 0.793564 27.0642 0.387424 26.4377 0.172131C25.8113 -0.0431627 25.1333 -0.0568364 24.4987 0.133023C23.8641 0.322883 23.3047 0.706775 22.8986 1.23098L0.669089 29.8662C0.23544 30.4247 0 31.1121 0 31.8197C0 32.5274 0.23544 33.2148 0.669089 33.7733L22.8986 62.4085C23.3047 62.9327 23.8641 63.3166 24.4987 63.5065C25.1333 63.6963 25.8113 63.6827 26.4377 63.4674C27.0642 63.2521 27.6078 62.8459 27.9925 62.3058C28.3771 61.7656 28.5836 61.1185 28.583 60.455V47.76C45.6648 48.1164 53.8707 51.3649 57.9927 54.8965C61.9114 58.2532 62.6291 62.2017 63.3754 66.3379L63.5691 67.4038C63.7116 68.1664 64.1274 68.8507 64.7382 69.3277C65.349 69.8047 66.1127 70.0417 66.8857 69.994C67.6587 69.9463 68.3877 69.6172 68.9354 69.0687C69.4832 68.5202 69.812 67.79 69.8601 67.0156C70.4031 58.2723 69.587 45.6028 63.423 35.0046C57.4401 24.7182 46.6651 16.8085 28.583 15.9813V3.18453Z" fill="#FFFEFE"/>
</svg>
